<?xml version="1.0" encoding="UTF-8"?>
<svg width="42px" height="42px" viewBox="0 0 42 42" version="1.1" xmlns="http://www.w3.org/2000/svg" xmlns:xlink="http://www.w3.org/1999/xlink">
    <!-- Generator: Sketch 41 (35326) - http://www.bohemiancoding.com/sketch -->
    <title>Shape Copy 39</title>
    <desc>Created with Sketch.</desc>
    <defs></defs>
    <g id="Page-1" stroke="none" stroke-width="1" fill="none" fill-rule="evenodd">
        <g id="Search-apartments-Copy-7" transform="translate(-443.000000, -2932.000000)" fill="#B4AEA5">
            <path d="M464.004566,2932 C475.584475,2932 485,2941.41553 485,2952.99543 C485,2964.57534 475.584475,2974 464.004566,2974 C452.415525,2974 443,2964.57534 443,2952.99543 C443,2941.41553 452.415525,2932 464.004566,2932 L464.004566,2932 Z M464.004566,2972.63927 C474.835616,2972.63927 483.648402,2963.82648 483.648402,2952.99543 C483.648402,2942.16438 474.835616,2933.3516 464.004566,2933.3516 C453.392694,2933.3516 444.726027,2941.79909 444.369863,2952.31963 L466.351598,2952.27397 L462.534247,2948.46575 L463.493151,2947.50685 L468.936073,2952.94977 L463.392694,2958.49315 L462.43379,2957.53425 L466.342466,2953.6347 L444.369863,2953.67123 C444.726027,2964.19178 453.392694,2972.63927 464.004566,2972.63927 L464.004566,2972.63927 Z" id="Shape-Copy-39"></path>
        </g>
    </g>
</svg>