<?xml version="1.0" encoding="UTF-8" standalone="no"?>
<svg width="68px" height="51px" viewBox="0 0 68 51" version="1.1" xmlns="http://www.w3.org/2000/svg" xmlns:xlink="http://www.w3.org/1999/xlink">
    <!-- Generator: sketchtool 39.1 (31720) - http://www.bohemiancoding.com/sketch -->
    <title>8CCD1A84-63DF-4CE2-80AC-97BE68375DE2</title>
    <desc>Created with sketchtool.</desc>
    <defs></defs>
    <g id="Page-1" stroke="none" stroke-width="1" fill="none" fill-rule="evenodd">
        <g id="-g-wolsen_eb5-final" transform="translate(-155.000000, -9339.000000)">
            <g id="Block_about-wolsen" transform="translate(55.000000, 8323.000000)">
                <g id="account-card-details-copy" transform="translate(100.000000, 1016.000000)">
                    <path d="M5.66666667,0 L62.3333333,0 C65.3083333,0 68,2.69166667 68,5.66666667 L68,45.3333333 C68,48.3083333 65.3083333,51 62.3333333,51 L5.66666667,51 C2.69166667,51 0,48.3083333 0,45.3333333 L0,5.66666667 C0,2.69166667 2.69166667,0 5.66666667,0 L5.66666667,0 Z M22.6666667,30.9116667 C17,30.9116667 5.66666667,34 5.66666667,39.6666667 L5.66666667,42.5 L39.6666667,42.5 L39.6666667,39.6666667 C39.6666667,34 28.3333333,30.9116667 22.6666667,30.9116667 L22.6666667,30.9116667 Z M22.6666667,8.5 C17.9722463,8.5 14.1666667,12.3055796 14.1666667,17 C14.1666667,21.6944204 17.9722463,25.5 22.6666667,25.5 C27.361087,25.5 31.1666667,21.6944204 31.1666667,17 C31.1666667,12.3055796 27.361087,8.5 22.6666667,8.5 L22.6666667,8.5 Z" id="Shape" fill="#006F97"></path>
                    <text id="RU" font-family="Roboto-Black, Roboto" font-size="8" font-weight="700" line-spacing="9" fill="#FFFFFF">
                        <tspan x="51" y="14">RU</tspan>
                        <tspan x="51" y="23">UA</tspan>
                        <tspan x="51" y="32">KZ</tspan>
                    </text>
                </g>
            </g>
        </g>
    </g>
</svg>