<?xml version="1.0" encoding="UTF-8" standalone="no"?>
<svg width="70px" height="50px" viewBox="0 0 70 50" version="1.1" xmlns="http://www.w3.org/2000/svg" xmlns:xlink="http://www.w3.org/1999/xlink">
    <!-- Generator: sketchtool 39.1 (31720) - http://www.bohemiancoding.com/sketch -->
    <title>8430B890-4851-4B4B-B2DF-BE83834044B4</title>
    <desc>Created with sketchtool.</desc>
    <defs></defs>
    <g id="Page-1" stroke="none" stroke-width="1" fill="none" fill-rule="evenodd">
        <g id="-g-wolsen_eb5-final" transform="translate(-155.000000, -9070.000000)" fill="#006F97">
            <g id="Block_about-wolsen" transform="translate(55.000000, 8323.000000)">
                <g id="account-check" transform="translate(100.000000, 747.000000)">
                    <path d="M24.80625,3.17206578e-15 C31.6563068,0 37.209375,5.59644063 37.209375,12.5 C37.209375,19.4035594 31.6563068,25 24.80625,25 C17.9561932,25 12.403125,19.4035594 12.403125,12.5 C12.403125,5.59644063 17.9561932,0 24.80625,0 L24.80625,3.17206578e-15 Z M24.80625,31.25 C38.5205625,31.25 49.6125,36.8571429 49.6125,43.75 L49.6125,50 L0,50 L0,43.75 C0,36.8571429 11.0919375,31.25 24.80625,31.25 L24.80625,31.25 Z M53.15625,27.3571429 L43.4109375,16.6428571 L47.5216875,12.5 L53.15625,18.1785714 L65.8783125,5.35714286 L69.9890625,10.3928571 L53.15625,27.3571429 L53.15625,27.3571429 Z" id="Shape"></path>
                </g>
            </g>
        </g>
    </g>
</svg>