<?xml version="1.0" encoding="UTF-8" standalone="no"?>
<svg width="68px" height="44px" viewBox="0 0 68 44" version="1.1" xmlns="http://www.w3.org/2000/svg" xmlns:xlink="http://www.w3.org/1999/xlink">
    <!-- Generator: sketchtool 39.1 (31720) - http://www.bohemiancoding.com/sketch -->
    <title>C561301F-5463-4BE3-9CC0-F3EB027AFD95</title>
    <desc>Created with sketchtool.</desc>
    <defs></defs>
    <g id="Page-1" stroke="none" stroke-width="1" fill="none" fill-rule="evenodd">
        <g id="-g-wolsen_eb5-final" transform="translate(-155.000000, -9163.000000)" fill="#006F97">
            <g id="Block_about-wolsen" transform="translate(55.000000, 8323.000000)">
                <g id="account-multiple-2" transform="translate(100.000000, 840.000000)">
                    <path d="M46.3636364,24.754717 C45.4672727,24.754717 44.4472727,24.754717 43.3654545,24.909434 C46.9509091,27.5086792 49.4545455,30.9433962 49.4545455,35.5849057 L49.4545455,43.3207547 L68,43.3207547 L68,35.5849057 C68,28.3750943 53.5654545,24.754717 46.3636364,24.754717 L46.3636364,24.754717 Z M21.6363636,24.754717 C14.4345455,24.754717 0,28.3750943 0,35.5849057 L0,43.3207547 L43.2727273,43.3207547 L43.2727273,35.5849057 C43.2727273,28.3750943 28.8381818,24.754717 21.6363636,24.754717 L21.6363636,24.754717 Z M21.6363636,18.5660377 C26.7575495,18.5660377 30.9090909,14.4098886 30.9090909,9.28301887 C30.9090909,4.15614911 26.7575495,0 21.6363636,0 C16.5151778,0 12.3636364,4.15614911 12.3636364,9.28301887 C12.3636364,14.4098886 16.5151778,18.5660377 21.6363636,18.5660377 L21.6363636,18.5660377 Z M46.3636364,18.5660377 C51.4848222,18.5660377 55.6363636,14.4098886 55.6363636,9.28301887 C55.6363636,4.15614911 51.4848222,0 46.3636364,0 C41.2424505,0 37.0909091,4.15614911 37.0909091,9.28301887 C37.0909091,14.4098886 41.2424505,18.5660377 46.3636364,18.5660377 L46.3636364,18.5660377 Z" id="Shape"></path>
                </g>
            </g>
        </g>
    </g>
</svg>