<?xml version="1.0" encoding="UTF-8" standalone="no"?>
<svg width="68px" height="51px" viewBox="0 0 68 51" version="1.1" xmlns="http://www.w3.org/2000/svg" xmlns:xlink="http://www.w3.org/1999/xlink">
    <!-- Generator: sketchtool 39.1 (31720) - http://www.bohemiancoding.com/sketch -->
    <title>03216EC9-3DCE-40CE-9F1B-259040FA5666</title>
    <desc>Created with sketchtool.</desc>
    <defs></defs>
    <g id="Page-1" stroke="none" stroke-width="1" fill="none" fill-rule="evenodd">
        <g id="-g-wolsen_eb5-final" transform="translate(-155.000000, -9250.000000)">
            <g id="Block_about-wolsen" transform="translate(55.000000, 8323.000000)">
                <g id="account-card-details" transform="translate(100.000000, 927.000000)">
                    <path d="M62.3333333,0 C65.3083333,0 68,2.69166667 68,5.66666667 L68,45.3333333 C68,48.3083333 65.3083333,51 62.3333333,51 L5.66666667,51 C2.69166667,51 0,48.3083333 0,45.3333333 L0,5.66666667 C0,2.69166667 2.69166667,0 5.66666667,0 L62.3333333,0 Z M22.6666667,30.9116667 C17,30.9116667 5.66666667,34 5.66666667,39.6666667 L5.66666667,42.5 L39.6666667,42.5 L39.6666667,39.6666667 C39.6666667,34 28.3333333,30.9116667 22.6666667,30.9116667 L22.6666667,30.9116667 Z M22.6666667,8.5 C17.9722463,8.5 14.1666667,12.3055796 14.1666667,17 C14.1666667,21.6944204 17.9722463,25.5 22.6666667,25.5 C27.361087,25.5 31.1666667,21.6944204 31.1666667,17 C31.1666667,12.3055796 27.361087,8.5 22.6666667,8.5 L22.6666667,8.5 Z" id="Shape" fill="#006F97"></path>
                    <path d="M58.31,19.851 C58.076,19.131 57.401,18.6 56.6,18.6 L55.7,18.6 L55.7,15.9 C55.7,15.4029437 55.2970563,15 54.8,15 L49.4,15 L49.4,13.2 L51.2,13.2 C51.6970563,13.2 52.1,12.7970563 52.1,12.3 L52.1,10.5 L53.9,10.5 C54.8941125,10.5 55.7,9.69411255 55.7,8.7 L55.7,8.331 C58.337,9.393 60.2,11.976 60.2,15 C60.2,16.872 59.48,18.573 58.31,19.851 L58.31,19.851 Z M52.1,22.137 C48.545,21.696 45.8,18.672 45.8,15 C45.8,14.442 45.872,13.902 45.989,13.389 L50.3,17.7 L50.3,18.6 C50.3,19.5941125 51.1058875,20.4 52.1,20.4 L52.1,22.137 Z M53,6 C48.0294373,6 44,10.0294373 44,15 C44,17.3869484 44.9482116,19.6761336 46.636039,21.363961 C48.3238664,23.0517884 50.6130516,24 53,24 C55.3869484,24 57.6761336,23.0517884 59.363961,21.363961 C61.0517884,19.6761336 62,17.3869484 62,15 C62,12.6130516 61.0517884,10.3238664 59.363961,8.63603897 C57.6761336,6.94821156 55.3869484,6 53,6 L53,6 Z" id="Shape" fill="#FFFFFF"></path>
                </g>
            </g>
        </g>
    </g>
</svg>