<?xml version="1.0" encoding="UTF-8" standalone="no"?>
<svg width="19px" height="27px" viewBox="0 0 19 27" version="1.1" xmlns="http://www.w3.org/2000/svg" xmlns:xlink="http://www.w3.org/1999/xlink">
    <!-- Generator: sketchtool 39.1 (31720) - http://www.bohemiancoding.com/sketch -->
    <title>FA2836DF-62E3-484D-B72A-8D5A74E49F2C</title>
    <desc>Created with sketchtool.</desc>
    <defs></defs>
    <g id="Page-1" stroke="none" stroke-width="1" fill="none" fill-rule="evenodd">
        <g id="-g-wolsen_eb5-final" transform="translate(-55.000000, -10520.000000)" fill="#006F97">
            <g id="-Block_contacts" transform="translate(0.000000, 10041.000000)">
                <g id="adress" transform="translate(55.000000, 466.000000)">
                    <g id="map-marker-3" transform="translate(0.000000, 13.000000)">
                        <path d="M9.5,13.0813953 C7.62617674,13.0813953 6.10714286,11.5976878 6.10714286,9.76744186 C6.10714286,8.88852675 6.46460357,8.04560971 7.10088771,7.42412288 C7.73717185,6.80263604 8.60015834,6.45348837 9.5,6.45348837 C11.3738233,6.45348837 12.8928571,7.93719589 12.8928571,9.76744186 C12.8928571,10.646357 12.5353964,11.489274 11.8991123,12.1107608 C11.2628282,12.7322477 10.3998417,13.0813953 9.5,13.0813953 L9.5,13.0813953 Z M9.5,0.488372093 C4.25329488,0.488372093 2.98174184e-15,4.64275314 1.77635684e-15,9.76744186 C2.98174184e-15,16.7267442 9.5,27 9.5,27 C9.5,27 19,16.7267442 19,9.76744186 C19,4.64275314 14.7467051,0.488372093 9.5,0.488372093 L9.5,0.488372093 Z" id="Shape"></path>
                    </g>
                </g>
            </g>
        </g>
    </g>
</svg>