<?xml version="1.0" encoding="UTF-8" standalone="no"?>
<svg width="19px" height="19px" viewBox="0 0 19 19" version="1.1" xmlns="http://www.w3.org/2000/svg" xmlns:xlink="http://www.w3.org/1999/xlink">
    <!-- Generator: sketchtool 39.1 (31720) - http://www.bohemiancoding.com/sketch -->
    <title>F3E56036-D67B-4EFB-A66E-94139569C56C</title>
    <desc>Created with sketchtool.</desc>
    <defs></defs>
    <g id="Page-1" stroke="none" stroke-width="1" fill="none" fill-rule="evenodd">
        <g id="-g-wolsen_eb5-final" transform="translate(-55.000000, -6673.000000)" fill="#006F97">
            <g id="Block_about-MWC" transform="translate(55.000000, 5534.000000)">
                <g id="Застройщик" transform="translate(0.000000, 1040.000000)">
                    <g id="checkbox-marked-circle-outline-copy-15" transform="translate(0.000000, 99.000000)">
                        <path d="M17.1,9.5 C17.1,13.6973641 13.6973641,17.1 9.5,17.1 C5.3026359,17.1 1.9,13.6973641 1.9,9.5 C1.9,5.3026359 5.3026359,1.9 9.5,1.9 C10.222,1.9 10.925,2.0045 11.59,2.1945 L13.0815,0.703 C11.9795,0.247 10.773,0 9.5,0 C4.25329488,-2.10942375e-15 4.21884749e-16,4.25329488 0,9.5 C-1.26565425e-15,12.0195567 1.00088998,14.4359188 2.78248558,16.2175144 C4.56408117,17.99911 6.98044335,19 9.5,19 C12.0195567,19 14.4359188,17.99911 16.2175144,16.2175144 C17.99911,14.4359188 19,12.0195567 19,9.5 L17.1,9.5 Z M5.6145,7.676 L4.275,9.025 L8.55,13.3 L18.05,3.8 L16.7105,2.451 L8.55,10.6115 L5.6145,7.676 L5.6145,7.676 Z" id="Shape"></path>
                    </g>
                </g>
            </g>
        </g>
    </g>
</svg>