<?xml version="1.0" encoding="UTF-8" standalone="no"?>
<svg width="30px" height="30px" viewBox="0 0 30 30" version="1.1" xmlns="http://www.w3.org/2000/svg" xmlns:xlink="http://www.w3.org/1999/xlink">
    <!-- Generator: sketchtool 39.1 (31720) - http://www.bohemiancoding.com/sketch -->
    <title>851A4CA5-B4CD-4F5B-87AD-63E4D8CC6E0D</title>
    <desc>Created with sketchtool.</desc>
    <defs></defs>
    <g id="Page-1" stroke="none" stroke-width="1" fill="none" fill-rule="evenodd">
        <g id="-g-wolsen_eb5-final" transform="translate(-877.000000, -7654.000000)" fill="#006F97">
            <g id="Block_apart" transform="translate(0.000000, 7624.000000)">
                <g id="compass-outline" transform="translate(892.202796, 45.495689) rotate(45.000000) translate(-892.202796, -45.495689) translate(881.202796, 34.995689)">
                    <path d="M5,16 L8.2,9.2 L15,6 L11.8,12.8 L5,16 L5,16 Z M10,10.1 C9.50294373,10.1 9.1,10.5029437 9.1,11 C9.1,11.4970563 9.50294373,11.9 10,11.9 C10.4970563,11.9 10.9,11.4970563 10.9,11 C10.9,10.5029437 10.4970563,10.1 10,10.1 L10,10.1 Z M10,1 C12.6521649,1 15.195704,2.0535684 17.0710678,3.92893219 C18.9464316,5.80429597 20,8.3478351 20,11 C20,16.5228475 15.5228475,21 10,21 C7.3478351,21 4.80429597,19.9464316 2.92893219,18.0710678 C1.0535684,16.195704 1.13908882e-13,13.6521649 1.13686838e-13,11 C1.1235457e-13,8.3478351 1.0535684,5.80429597 2.92893219,3.92893219 C4.80429597,2.0535684 7.3478351,1 10,1 L10,1 Z M10,3 C5.581722,3 2,6.581722 2,11 C2,15.418278 5.581722,19 10,19 C12.1217319,19 14.1565632,18.1571453 15.6568542,16.6568542 C17.1571453,15.1565632 18,13.1217319 18,11 C18,6.581722 14.418278,3 10,3 L10,3 Z" id="Shape"></path>
                </g>
            </g>
        </g>
    </g>
</svg>