<?xml version="1.0" encoding="UTF-8" standalone="no"?>
<svg width="45px" height="45px" viewBox="0 0 45 45" version="1.1" xmlns="http://www.w3.org/2000/svg" xmlns:xlink="http://www.w3.org/1999/xlink">
    <!-- Generator: sketchtool 39.1 (31720) - http://www.bohemiancoding.com/sketch -->
    <title>17AD6DF5-54B7-4042-B364-A4E16E0E865C</title>
    <desc>Created with sketchtool.</desc>
    <defs></defs>
    <g id="Page-1" stroke="none" stroke-width="1" fill="none" fill-rule="evenodd">
        <g id="-g-wolsen_eb5-final" transform="translate(-585.000000, -10703.000000)">
            <g id="Block_footer" transform="translate(0.000000, 10673.000000)">
                <g id="social" transform="translate(585.000000, 30.000000)">
                    <g id="iconmonstr-facebook-4">
                        <path d="M22.5,0 C10.074375,0 0,10.074375 0,22.5 C0,34.925625 10.074375,45 22.5,45 C34.925625,45 45,34.925625 45,22.5 C45,10.074375 34.925625,0 22.5,0 L22.5,0 Z" id="Shape" fill="#51BCD6"></path>
                        <path d="M28.125,15 L25.59375,15 C24.585,15 24.375,15.4125 24.375,16.45875 L24.375,18.75 L28.125,18.75 L27.73125,22.5 L24.375,22.5 L24.375,35.625 L18.75,35.625 L18.75,22.5 L15,22.5 L15,18.75 L18.75,18.75 L18.75,14.4225 C18.75,11.10375 20.49375,9.375 24.43125,9.375 L28.125,9.375 L28.125,15 L28.125,15 Z" id="Path" fill="#FFFFFF"></path>
                    </g>
                </g>
            </g>
        </g>
    </g>
</svg>