<?xml version="1.0" encoding="UTF-8" standalone="no"?>
<svg width="19px" height="19px" viewBox="0 0 19 19" version="1.1" xmlns="http://www.w3.org/2000/svg" xmlns:xlink="http://www.w3.org/1999/xlink">
    <!-- Generator: sketchtool 39.1 (31720) - http://www.bohemiancoding.com/sketch -->
    <title>D5D51AD7-81C5-4E72-8D27-CA5D6053AA25</title>
    <desc>Created with sketchtool.</desc>
    <defs></defs>
    <g id="Page-1" stroke="none" stroke-width="1" fill="none" fill-rule="evenodd">
        <g id="-g-wolsen_eb5-final" transform="translate(-705.000000, -9380.000000)" fill="#006F97">
            <g id="Block_about-wolsen" transform="translate(55.000000, 8323.000000)">
                <g id="web" transform="translate(650.000000, 1057.000000)">
                    <path d="M13.642,11.4 C13.718,10.773 13.775,10.146 13.775,9.5 C13.775,8.854 13.718,8.227 13.642,7.6 L16.853,7.6 C17.005,8.208 17.1,8.8445 17.1,9.5 C17.1,10.1555 17.005,10.792 16.853,11.4 L13.642,11.4 Z M11.9605,16.682 C12.5305,15.6275 12.9675,14.4875 13.2715,13.3 L16.074,13.3 C15.162,14.8675 13.7085,16.0835 11.9605,16.682 L11.9605,16.682 Z M11.723,11.4 L7.277,11.4 C7.182,10.773 7.125,10.146 7.125,9.5 C7.125,8.854 7.182,8.2175 7.277,7.6 L11.723,7.6 C11.8085,8.2175 11.875,8.854 11.875,9.5 C11.875,10.146 11.8085,10.773 11.723,11.4 L11.723,11.4 Z M9.5,17.062 C8.7115,15.922 8.075,14.6585 7.6855,13.3 L11.3145,13.3 C10.925,14.6585 10.2885,15.922 9.5,17.062 L9.5,17.062 Z M5.7,5.7 L2.926,5.7 C3.8285,4.123 5.2915,2.907 7.03,2.318 C6.46,3.3725 6.0325,4.5125 5.7,5.7 L5.7,5.7 Z M2.926,13.3 L5.7,13.3 C6.0325,14.4875 6.46,15.6275 7.03,16.682 C5.2915,16.0835 3.8285,14.8675 2.926,13.3 L2.926,13.3 Z M2.147,11.4 C1.995,10.792 1.9,10.1555 1.9,9.5 C1.9,8.8445 1.995,8.208 2.147,7.6 L5.358,7.6 C5.282,8.227 5.225,8.854 5.225,9.5 C5.225,10.146 5.282,10.773 5.358,11.4 L2.147,11.4 Z M9.5,1.9285 C10.2885,3.0685 10.925,4.3415 11.3145,5.7 L7.6855,5.7 C8.075,4.3415 8.7115,3.0685 9.5,1.9285 L9.5,1.9285 Z M16.074,5.7 L13.2715,5.7 C12.9675,4.5125 12.5305,3.3725 11.9605,2.318 C13.7085,2.9165 15.162,4.123 16.074,5.7 L16.074,5.7 Z M9.5,4.21884749e-16 C4.2465,4.21884749e-16 0,4.275 0,9.5 C-2.10942375e-16,12.0195567 1.00088998,14.4359188 2.78248558,16.2175144 C4.56408117,17.99911 6.98044335,19 9.5,19 C14.7467051,19 19,14.7467051 19,9.5 C19,6.98044335 17.99911,4.56408117 16.2175144,2.78248558 C14.4359188,1.00088998 12.0195567,2.10942375e-16 9.5,0 L9.5,4.21884749e-16 Z" id="Shape"></path>
                </g>
            </g>
        </g>
    </g>
</svg>