<?xml version="1.0" encoding="UTF-8" standalone="no"?>
<svg width="70px" height="64px" viewBox="0 0 70 64" version="1.1" xmlns="http://www.w3.org/2000/svg" xmlns:xlink="http://www.w3.org/1999/xlink">
    <!-- Generator: sketchtool 39.1 (31720) - http://www.bohemiancoding.com/sketch -->
    <title>4050F7D1-5803-415B-9C6E-9C71F4DCBAFE</title>
    <desc>Created with sketchtool.</desc>
    <defs></defs>
    <g id="Page-1" stroke="none" stroke-width="1" fill="none" fill-rule="evenodd">
        <g id="-g-wolsen_eb5-final" transform="translate(-155.000000, -9423.000000)" fill="#006F97">
            <g id="Block_about-wolsen" transform="translate(55.000000, 8323.000000)">
                <g id="home-modern" transform="translate(100.000000, 1100.000000)">
                    <path d="M0,17.7541669 C0,13.8320247 3.17952451,10.6525002 7.10166677,10.6525002 L35.5083338,0 L35.5083338,10.6525002 C39.4304761,10.6525002 42.6100006,13.8320247 42.6100006,17.7541669 L42.6100006,63.9150009 L21.3050003,63.9150009 L21.3050003,46.160834 L7.10166677,46.160834 L7.10166677,63.9150009 L0,63.9150009 L0,17.7541669 Z M28.4066671,56.8133341 L35.5083338,56.8133341 L35.5083338,46.160834 L28.4066671,46.160834 L28.4066671,56.8133341 L28.4066671,56.8133341 Z M7.10166677,35.5083338 L14.2033335,35.5083338 L14.2033335,21.3050003 L7.10166677,21.3050003 L7.10166677,35.5083338 L7.10166677,35.5083338 Z M21.3050003,35.5083338 L35.5083338,35.5083338 L35.5083338,21.3050003 L21.3050003,21.3050003 L21.3050003,35.5083338 L21.3050003,35.5083338 Z" id="Shape"></path>
                    <polygon id="Path" points="52.7453125 22 43 11.2857143 47.11075 7.14285714 52.7453125 12.8214286 65.467375 0 69.578125 5.03571429"></polygon>
                </g>
            </g>
        </g>
    </g>
</svg>