<?xml version="1.0" encoding="UTF-8" standalone="no"?>
<svg width="82px" height="78px" viewBox="0 0 82 78" version="1.1" xmlns="http://www.w3.org/2000/svg" xmlns:xlink="http://www.w3.org/1999/xlink">
    <!-- Generator: sketchtool 39.1 (31720) - http://www.bohemiancoding.com/sketch -->
    <title>8ED48884-FAB0-4250-A37B-92870839168B</title>
    <desc>Created with sketchtool.</desc>
    <defs></defs>
    <g id="Page-1" stroke="none" stroke-width="1" fill="none" fill-rule="evenodd">
        <g id="-g-wolsen_eb5-final" transform="translate(-599.000000, -1881.000000)" fill="#998100">
            <g id="Block_icons_miami" transform="translate(0.000000, 1590.000000)">
                <g id="icon_consulates" transform="translate(552.000000, 291.000000)">
                    <g transform="translate(47.000000, 0.000000)" id="Shape">
                        <path d="M34.85,63.55 L20.5,49.2 L26.281,43.419 L34.85,51.947 L56.088,30.75 L61.869,36.531 L34.85,63.55 Z M32.8,8.2 L49.2,8.2 L49.2,16.4 L32.8,16.4 L32.8,8.2 Z M73.8,16.4 L57.4,16.4 L57.4,8.2 L49.2,0 L32.8,0 L24.6,8.2 L24.6,16.4 L8.2,16.4 C3.649,16.4 0,20.049 0,24.6 L0,69.7 C0,74.251 3.649,77.9 8.2,77.9 L73.8,77.9 C78.351,77.9 82,74.251 82,69.7 L82,24.6 C82,20.049 78.351,16.4 73.8,16.4 L73.8,16.4 Z"></path>
                    </g>
                </g>
            </g>
        </g>
    </g>
</svg>