<?xml version="1.0" encoding="UTF-8" standalone="no"?>
<svg width="82px" height="52px" viewBox="0 0 82 52" version="1.1" xmlns="http://www.w3.org/2000/svg" xmlns:xlink="http://www.w3.org/1999/xlink">
    <!-- Generator: sketchtool 39.1 (31720) - http://www.bohemiancoding.com/sketch -->
    <title>EB306900-97F0-4028-B0D7-419A6CD8FFEB</title>
    <desc>Created with sketchtool.</desc>
    <defs></defs>
    <g id="Page-1" stroke="none" stroke-width="1" fill="none" fill-rule="evenodd">
        <g id="-g-wolsen_eb5-final" transform="translate(-199.000000, -1667.000000)" fill="#998100">
            <g id="Block_icons_miami" transform="translate(0.000000, 1590.000000)">
                <g id="icon_visitors" transform="translate(132.000000, 77.000000)">
                    <g id="icon_visitor" transform="translate(67.000000, 0.000000)">
                        <path d="M55.9090909,29.7142857 C54.8281818,29.7142857 53.5981818,29.7142857 52.2936364,29.9 C56.6172727,33.02 59.6363636,37.1428571 59.6363636,42.7142857 L59.6363636,52 L82,52 L82,42.7142857 C82,34.06 64.5936364,29.7142857 55.9090909,29.7142857 L55.9090909,29.7142857 Z M26.0909091,29.7142857 C17.4063636,29.7142857 0,34.06 0,42.7142857 L0,52 L52.1818182,52 L52.1818182,42.7142857 C52.1818182,34.06 34.7754545,29.7142857 26.0909091,29.7142857 L26.0909091,29.7142857 Z M26.0909091,22.2857143 C32.2664567,22.2857143 37.2727273,17.2968872 37.2727273,11.1428571 C37.2727273,4.98882707 32.2664567,0 26.0909091,0 C19.9153614,0 14.9090909,4.98882707 14.9090909,11.1428571 C14.9090909,17.2968872 19.9153614,22.2857143 26.0909091,22.2857143 L26.0909091,22.2857143 Z M55.9090909,22.2857143 C62.0846386,22.2857143 67.0909091,17.2968872 67.0909091,11.1428571 C67.0909091,4.98882707 62.0846386,0 55.9090909,0 C49.7335433,0 44.7272727,4.98882707 44.7272727,11.1428571 C44.7272727,17.2968872 49.7335433,22.2857143 55.9090909,22.2857143 L55.9090909,22.2857143 Z" id="Shape"></path>
                    </g>
                </g>
            </g>
        </g>
    </g>
</svg>