<?xml version="1.0" encoding="UTF-8" standalone="no"?>
<svg width="82px" height="87px" viewBox="0 0 82 87" version="1.1" xmlns="http://www.w3.org/2000/svg" xmlns:xlink="http://www.w3.org/1999/xlink">
    <!-- Generator: sketchtool 39.1 (31720) - http://www.bohemiancoding.com/sketch -->
    <title>C93C3D29-A4C6-4FAE-970D-6B1A85815E61</title>
    <desc>Created with sketchtool.</desc>
    <defs></defs>
    <g id="Page-1" stroke="none" stroke-width="1" fill="none" fill-rule="evenodd">
        <g id="-g-wolsen_eb5-final" transform="translate(-999.000000, -1633.000000)" fill="#998100">
            <g id="Block_icons_miami" transform="translate(0.000000, 1590.000000)">
                <g id="icon_cruises" transform="translate(934.000000, 43.000000)">
                    <g id="icon_anchor" transform="translate(65.000000, 0.000000)">
                        <path d="M41,2.03346112e-15 C33.4521084,0 27.3333333,6.1501937 27.3333333,13.7368421 C27.3333333,19.5521053 30.9777778,24.7263158 36.4444444,26.6952632 L36.4444444,36.6315789 L22.7777778,36.6315789 L22.7777778,45.7894737 L36.4444444,45.7894737 L36.4444444,77.4757895 C28.0622222,76.1478947 20.6366667,71.2942105 16.0811111,64.1052632 L22.7777778,64.1052632 L22.7777778,54.9473684 L0,54.9473684 L0,77.8421053 L9.11111111,77.8421053 L9.11111111,70.0578947 C16.3088889,80.6352632 28.2444444,87 41,87 C53.7555556,87 65.6911111,80.6352632 72.8888889,70.1036842 L72.8888889,77.8421053 L82,77.8421053 L82,54.9473684 L59.2222222,54.9473684 L59.2222222,64.1052632 L65.8733333,64.1052632 C61.3177778,71.2484211 53.8922222,76.1478947 45.5555556,77.4757895 L45.5555556,45.7894737 L59.2222222,45.7894737 L59.2222222,36.6315789 L45.5555556,36.6315789 L45.5555556,26.6494737 C51.0222222,24.7263158 54.6666667,19.5521053 54.6666667,13.7368421 C54.6666667,6.1501937 48.5478916,0 41,0 L41,2.03346112e-15 Z M41,9.15789474 C43.5159639,9.15789474 45.5555556,11.2079593 45.5555556,13.7368421 C45.5555556,16.2657249 43.5159639,18.3157895 41,18.3157895 C38.4840361,18.3157895 36.4444444,16.2657249 36.4444444,13.7368421 C36.4444444,11.2079593 38.4840361,9.15789474 41,9.15789474 L41,9.15789474 Z" id="Shape"></path>
                    </g>
                </g>
            </g>
        </g>
    </g>
</svg>