<?xml version="1.0" encoding="UTF-8" standalone="no"?>
<svg width="82px" height="82px" viewBox="0 0 82 82" version="1.1" xmlns="http://www.w3.org/2000/svg" xmlns:xlink="http://www.w3.org/1999/xlink">
    <!-- Generator: sketchtool 39.1 (31720) - http://www.bohemiancoding.com/sketch -->
    <title>8EA6E527-304A-4474-B69A-47DD3341EB0E</title>
    <desc>Created with sketchtool.</desc>
    <defs></defs>
    <g id="Page-1" stroke="none" stroke-width="1" fill="none" fill-rule="evenodd">
        <g id="-g-wolsen_eb5-final" transform="translate(-199.000000, -1877.000000)" fill="#998100">
            <g id="Block_icons_miami" transform="translate(0.000000, 1590.000000)">
                <g id="icon_corp_hq" transform="translate(112.000000, 287.000000)">
                    <g id="icon_corporate" transform="translate(87.000000, 0.000000)">
                        <path d="M82,36.4444444 L45.5555556,36.4444444 L45.5555556,0 C65.6832664,2.02307307e-15 82,16.3167336 82,36.4444444 L82,36.4444444 Z M72.8888889,45.5555556 C72.8888889,58.22 66.42,69.3811111 56.6255556,75.9411111 L39.0866667,45.5555556 L72.8888889,45.5555556 L72.8888889,45.5555556 Z M36.4444444,82 C23.78,82 12.6188889,75.5311111 6.05888889,65.7366667 L35.6244444,48.6533333 L52.6622222,78.2188889 C47.8333333,80.6333333 42.2755556,82 36.4444444,82 L36.4444444,82 Z M0,45.5555556 C-2.02307307e-15,25.4278447 16.3167336,9.11111111 36.4444444,9.11111111 L36.4444444,42.9133333 L3.78111111,61.7733333 C1.36666667,56.9444444 0,51.3866667 0,45.5555556 L0,45.5555556 Z" id="Shape"></path>
                    </g>
                </g>
            </g>
        </g>
    </g>
</svg>