<?xml version="1.0" encoding="UTF-8" standalone="no"?>
<svg width="82px" height="74px" viewBox="0 0 82 74" version="1.1" xmlns="http://www.w3.org/2000/svg" xmlns:xlink="http://www.w3.org/1999/xlink">
    <!-- Generator: sketchtool 39.1 (31720) - http://www.bohemiancoding.com/sketch -->
    <title>76A743F2-7D78-4F09-9C3E-4FE07F9FF7A7</title>
    <desc>Created with sketchtool.</desc>
    <defs></defs>
    <g id="Page-1" stroke="none" stroke-width="1" fill="none" fill-rule="evenodd">
        <g id="-g-wolsen_eb5-final" transform="translate(-999.000000, -1885.000000)" fill="#998100">
            <g id="Block_icons_miami" transform="translate(0.000000, 1590.000000)">
                <g id="icon_trade" transform="translate(942.000000, 295.000000)">
                    <g id="Icon_trade" transform="translate(57.000000, 0.000000)">
                        <polygon id="Shape" points="57.4 36.0955556 74.784 5.96111111 81.877 10.0722222 60.434 47.2777778 33.743 31.8611111 14.186 65.7777778 82 65.7777778 82 74 0 74 0 0 8.2 0 8.2 59.7755556 30.75 20.5555556"></polygon>
                        <path d="M72.9233792,49.7779961 C72.9233792,48.4931238 74.1139489,47.5972495 76.1060904,47.5972495 C78.2043222,47.5972495 78.9823183,48.5992141 79.0530452,50.0726916 L81.6581532,50.0726916 C81.5756385,48.0451866 80.3379175,46.1827112 77.8742633,45.5815324 L77.8742633,43 L74.3379175,43 L74.3379175,45.546169 C72.0510806,46.0412574 70.2121807,47.5265226 70.2121807,49.8015717 C70.2121807,52.524558 72.4636542,53.8801572 75.7524558,54.6699411 C78.6994106,55.3772102 79.2888016,56.4145383 79.2888016,57.5108055 C79.2888016,58.324165 78.7111984,59.6208251 76.1060904,59.6208251 C73.6777996,59.6208251 72.7229862,58.5363458 72.5697446,57.1453831 L70,57.1453831 C70.1414538,59.7269155 72.0746562,61.1768173 74.3379175,61.6601179 L74.3379175,64.2180747 L77.8742633,64.2180747 L77.8742633,61.6836935 C80.172888,61.2711198 82,59.9155206 82,57.4990177 C82,54.151277 79.1355599,53.0196464 76.459725,52.3123772 C73.78389,51.6168959 72.9233792,50.8978389 72.9233792,49.7779961 Z" id="Shape"></path>
                    </g>
                </g>
            </g>
        </g>
    </g>
</svg>