<?xml version="1.0" encoding="UTF-8" standalone="no"?>
<svg width="45px" height="45px" viewBox="0 0 45 45" version="1.1" xmlns="http://www.w3.org/2000/svg" xmlns:xlink="http://www.w3.org/1999/xlink">
    <!-- Generator: sketchtool 39.1 (31720) - http://www.bohemiancoding.com/sketch -->
    <title>51B208C5-8509-4AB6-9C2A-9E29542E05DC</title>
    <desc>Created with sketchtool.</desc>
    <defs></defs>
    <g id="Page-1" stroke="none" stroke-width="1" fill="none" fill-rule="evenodd">
        <g id="-g-wolsen_eb5-final" transform="translate(-650.000000, -10703.000000)">
            <g id="Block_footer" transform="translate(0.000000, 10673.000000)">
                <g id="social" transform="translate(585.000000, 30.000000)">
                    <g id="iconmonstr-instagram-9" transform="translate(65.000000, 0.000000)">
                        <path d="M45,22.5 C45,34.925625 34.925625,45 22.5,45 C10.074375,45 0,34.925625 0,22.5 C0,10.074375 10.074375,0 22.5,0 C34.925625,0 45,10.074375 45,22.5 L45,22.5 Z" id="Shape" fill="#51BCD6"></path>
                        <path d="M16.83,9 L28.17,9 C32.49,9 36,12.51 36,16.83 L36,28.17 C36,32.4943896 32.4943896,36 28.17,36 L16.83,36 C12.51,36 9,32.49 9,28.17 L9,16.83 C9,12.5056104 12.5056104,9 16.83,9 L16.83,9 Z M16.56,11.7 C13.8758961,11.7 11.7,13.8758961 11.7,16.56 L11.7,28.44 C11.7,31.1265 13.8735,33.3 16.56,33.3 L28.44,33.3 C31.1241039,33.3 33.3,31.1241039 33.3,28.44 L33.3,16.56 C33.3,13.8735 31.1265,11.7 28.44,11.7 L16.56,11.7 L16.56,11.7 Z M29.5875,13.725 C30.5194805,13.725 31.275,14.4805195 31.275,15.4125 C31.275,16.3444805 30.5194805,17.1 29.5875,17.1 C28.6555195,17.1 27.9,16.3444805 27.9,15.4125 C27.9,14.4805195 28.6555195,13.725 29.5875,13.725 L29.5875,13.725 Z M22.5,15.75 C26.2279221,15.75 29.25,18.7720779 29.25,22.5 C29.25,26.2279221 26.2279221,29.25 22.5,29.25 C18.7720779,29.25 15.75,26.2279221 15.75,22.5 C15.75,18.7720779 18.7720779,15.75 22.5,15.75 L22.5,15.75 Z M22.5,18.45 C20.2632468,18.45 18.45,20.2632468 18.45,22.5 C18.45,24.7367532 20.2632468,26.55 22.5,26.55 C24.7367532,26.55 26.55,24.7367532 26.55,22.5 C26.55,20.2632468 24.7367532,18.45 22.5,18.45 L22.5,18.45 Z" id="Shape" fill="#FFFFFF"></path>
                    </g>
                </g>
            </g>
        </g>
    </g>
</svg>