<?xml version="1.0" encoding="UTF-8" standalone="no"?>
<svg width="327px" height="86px" viewBox="0 0 327 86" version="1.1" xmlns="http://www.w3.org/2000/svg" xmlns:xlink="http://www.w3.org/1999/xlink">
    <!-- Generator: Sketch 39.1 (31720) - http://www.bohemiancoding.com/sketch -->
    <title>Logo_Wolsen Copy</title>
    <desc>Created with Sketch.</desc>
    <defs></defs>
    <g id="Page-1" stroke="none" stroke-width="1" fill="none" fill-rule="evenodd">
        <g id="Logo_Wolsen-Copy">
            <polygon id="Fill-33" fill="#221F20" points="0 3.56683884 326.898174 3.56683884 326.898174 0.761217536 0 0.761217536"></polygon>
            <polygon id="Fill-35" fill="#221F20" points="0 85.3005387 326.898174 85.3005387 326.898174 82.4949174 0 82.4949174"></polygon>
            <path d="M1.03676201,72.8041314 L1.03676201,66.308693 L64.504835,68.9068683 L64.504835,65.3802874 C56.5326217,63.883956 15.2901131,56.2968758 1.08439795,56.487318 L1.08439795,50.4305768 C16.2360266,50.165318 56.6312962,59.8744681 64.504835,61.8094966 L64.504835,57.7115891 C57.8868432,54.2224165 28.8357304,39.7964218 1.12182618,40.1705047 L1.12182618,34.5490598 C30.5710393,34.0355461 58.0875946,50.3353557 64.504835,54.4128586 L64.504835,49.311729 C59.4690366,42.9285154 40.7651285,23.3163724 1.17286467,23.8468898 L1.17286467,18.6675429 C42.8032659,17.949984 59.8126958,38.7115816 64.504835,46.0095977 L64.504835,7.77152996 L0.84621829,7.77152996 L0.84621829,77.1774998 L64.504835,77.1774998 L64.504835,72.8041314 L1.03676201,72.8041314 Z" id="Fill-36" fill="#43B9D1"></path>
            <path d="M137.634496,16.1554066 C135.963836,16.1554066 134.616419,16.8559617 133.595649,18.2604727 C133.024018,19.0188407 132.204,20.7430225 131.149204,23.4364189 L119.315078,52.9311505 L109.131196,26.3848719 L98.6104604,52.9311505 L84.8470789,16.1554066 L81.8358075,16.1554066 L81.8358075,15.0773678 L95.9972893,15.0773678 L95.9972893,16.1554066 L91.784912,16.1554066 L101.51285,42.249385 L108.454085,24.3988321 L105.436009,16.1554066 L101.51285,16.1554066 L101.51285,15.0773678 L116.582817,15.0773678 L116.582817,16.1554066 L112.261557,16.1554066 L122.105182,42.6472732 L129.495557,24.1709816 C130.138642,22.5420209 130.465288,21.3857648 130.465288,20.7056142 C130.465288,17.6721424 128.546241,16.1554066 124.714951,16.1554066 L124.714951,15.0773678 L137.634496,15.0773678 L137.634496,16.1554066 L137.634496,16.1554066 Z" id="Fill-1" fill="#221F20"></path>
            <path d="M171.15522,33.6672445 C171.15522,28.8925872 170.512135,24.9885226 169.222562,21.9516501 C167.398786,17.6735027 164.441956,15.5310283 160.335058,15.5310283 C156.231563,15.5310283 153.288343,17.6735027 151.508801,21.9516501 C150.219228,25.0259309 149.569338,28.9299955 149.569338,33.6672445 C149.569338,45.7909293 153.155643,51.8544721 160.335058,51.8544721 C164.441956,51.8544721 167.398786,49.6983946 169.222562,45.3726367 C170.512135,42.3425657 171.15522,38.4385011 171.15522,33.6672445 M178.317622,33.6672445 C178.317622,39.6151617 176.252264,44.4476318 172.118146,48.1612542 C168.552256,51.3443591 164.629097,52.9325108 160.335058,52.9325108 C156.044422,52.9325108 152.131471,51.3647636 148.606412,48.219067 C144.472293,44.5394522 142.406935,39.6865775 142.406935,33.6672445 C142.406935,28.5117029 144.074193,24.0567163 147.408708,20.3056856 C150.903144,16.4016211 155.207391,14.4529896 160.335058,14.4529896 C165.500154,14.4529896 169.824816,16.3846173 173.31585,20.2512736 C176.646962,23.9614952 178.317622,28.4334855 178.317622,33.6672445" id="Fill-3" fill="#221F20"></path>
            <path d="M214.3753,40.4854144 L212.616173,52.3064322 L184.687907,52.3064322 L184.687907,51.1739814 L189.070413,51.1739814 L189.070413,16.1564268 L184.687907,16.1564268 L184.687907,15.0749873 L199.815718,15.0749873 L199.815718,16.1564268 L195.440018,16.1564268 L195.440018,51.1739814 L202.034191,51.1739814 C204.654168,51.1739814 207.063185,50.0177253 209.254438,47.7052132 C211.149667,45.6613606 212.500486,43.2536274 213.293284,40.4854144 L214.3753,40.4854144 Z" id="Fill-5" fill="#221F20"></path>
            <path d="M243.948367,41.7358713 C243.948367,44.9597853 243.009258,47.6293764 241.103821,49.7514464 C239.208592,51.8735163 236.666874,52.9311505 233.485475,52.9311505 C231.059445,52.9311505 229.2765,52.648888 228.140043,52.0809622 C225.598325,50.7920768 223.703096,50.1493345 222.454354,50.1493345 C221.08312,50.1493345 220.286919,50.8702941 220.058947,52.3054119 L218.694518,52.3054119 L218.694518,40.4299821 L219.323993,40.4299821 C222.359082,48.0102608 226.870885,51.795299 232.859402,51.795299 C235.023435,51.795299 236.860821,51.2137702 238.378365,50.0371096 C240.049025,48.7482242 240.879252,47.0614507 240.879252,44.976789 C240.879252,40.9979079 238.851322,38.4609461 234.798865,37.3591021 L228.085602,35.5396992 C222.695936,34.0603716 220.004506,30.2549289 220.004506,24.1131688 C220.004506,21.3109483 220.923199,18.9984361 222.760585,17.1790332 C224.604776,15.3596303 226.925326,14.4516293 229.729041,14.4516293 C231.96793,14.4516293 234.111547,14.9073302 236.163294,15.818732 C237.184064,16.2676314 238.170809,16.4954819 239.116722,16.4954819 C239.528433,16.4954819 239.970766,16.0227772 240.423308,15.0773678 L241.335196,15.0773678 L241.563168,24.055356 L240.763564,24.055356 C238.228652,18.33869 234.601516,15.4752559 229.902572,15.4752559 C227.854227,15.4752559 226.139334,16.0907923 224.754489,17.3218649 C223.373047,18.5563382 222.678923,20.1750967 222.678923,22.181541 C222.678923,24.4192366 223.492137,26.1434184 225.125369,27.3540865 C226.071282,28.0376379 227.585424,28.6633764 229.678003,29.2313022 L235.475976,30.7650419 C241.120834,32.2443694 243.948367,35.9035798 243.948367,41.7358713" id="Fill-7" fill="#221F20"></path>
            <path d="M279.901245,40.7112244 L278.703542,52.3043917 L249.866791,52.3043917 L249.866791,51.1753417 L254.249296,51.1753417 L254.249296,16.1543863 L249.866791,16.1543863 L249.866791,15.0763476 L277.910744,15.0763476 L278.533414,25.8193266 L277.165582,25.8193266 C276.219668,19.3748995 273.09271,16.1543863 267.781303,16.1543863 L260.618901,16.1543863 L260.618901,31.8454611 L262.670649,31.8454611 C264.293673,31.8454611 265.521999,31.5257903 266.362433,30.8796472 C267.726862,29.8560205 268.543478,27.9039883 268.805476,25.0269512 L269.948738,25.0269512 L269.948738,39.918849 L268.805476,39.918849 C268.38696,37.4567037 267.920809,35.8039377 267.383203,34.974154 C266.552977,33.6444595 265.089873,32.9813126 263.0041,32.9813126 L260.618901,32.9813126 L260.618901,51.1753417 L268.754438,51.1753417 C271.06478,51.1753417 272.881751,50.661828 274.212154,49.641602 C276.328551,48.0092406 277.771239,45.0335816 278.533414,40.7112244 L279.901245,40.7112244 Z" id="Fill-9" fill="#221F20"></path>
            <path d="M320.732043,16.1554066 C318.649673,16.1554066 317.247815,16.6893248 316.529874,17.746959 C316.070527,18.4305104 315.842555,19.6241747 315.842555,21.327952 L315.842555,52.9311505 L315.447858,52.9311505 L291.276025,20.7600263 L291.276025,46.0548278 C291.276025,47.5375561 291.728567,48.7584265 292.640454,49.7242403 C293.545537,50.693455 294.739838,51.1729612 296.223357,51.1729612 L296.223357,52.3054119 L285.185431,52.3054119 L285.185431,51.1729612 C285.495065,51.2137702 285.695816,51.230774 285.811503,51.230774 C288.656049,51.230774 290.078322,49.5065921 290.078322,46.0548278 L290.078322,19.1684738 C290.078322,18.1448471 289.605365,17.3694754 288.656049,16.8389579 C287.863251,16.383257 286.917338,16.1554066 285.811503,16.1554066 L285.811503,15.0773678 L294.858928,15.0773678 L314.648255,41.2257584 L314.648255,19.96425 C314.648255,17.4272882 313.018425,16.1554066 309.755364,16.1554066 L309.755364,15.0773678 L320.732043,15.0773678 L320.732043,16.1554066 Z" id="Fill-11" fill="#221F20"></path>
            <path d="M95.2354547,63.626519 C95.0108853,63.4972904 94.7727057,63.40547 94.5311234,63.351058 C94.2759309,63.2932452 94.0309462,63.2660392 93.7961691,63.2660392 C92.9863582,63.2660392 92.3262603,63.5176949 91.8056677,64.0312086 C91.2884776,64.5413216 91.0366876,65.2622812 91.0366876,66.1974883 L91.0366876,72.6215109 L89.6960764,72.6215109 L89.6960764,62.0995808 L91.0366876,62.0995808 L91.0366876,63.667328 L91.1183492,63.667328 C91.4858264,63.0007804 91.9383678,62.5552818 92.4793758,62.3206298 C93.0169813,62.0859778 93.5818074,61.9805545 94.1738539,61.9907568 C94.5005003,62.0043598 94.8033288,62.041768 95.0789366,62.0961801 C95.3545445,62.1505921 95.5927242,62.235611 95.7866705,62.3478358 L95.2354547,63.626519 Z" id="Fill-13" fill="#221F20"></path>
            <path d="M117.189494,66.6171413 C117.162274,65.4710875 116.890068,64.6208992 116.389891,64.0563742 C115.889714,63.4986507 115.19559,63.2197889 114.300715,63.2197889 C113.436463,63.2197889 112.74234,63.5122537 112.208137,64.0903817 C111.680739,64.6719105 111.388118,65.5152973 111.330275,66.6171413 L117.189494,66.6171413 Z M111.330275,67.7189853 C111.313262,68.246102 111.3643,68.7358104 111.479988,69.2051144 C111.58887,69.6710175 111.782816,70.0791079 112.051619,70.4259847 C112.317019,70.7728615 112.664081,71.0483225 113.079194,71.2523677 C113.49771,71.4598137 114.001289,71.5618363 114.576323,71.5618363 C114.957411,71.5618363 115.375926,71.4802182 115.828468,71.316982 C116.277606,71.1537459 116.682512,70.9326969 117.039781,70.6470337 L117.866605,71.5618363 C117.400453,71.9699266 116.890068,72.2725937 116.342255,72.4630358 C115.791039,72.653478 115.216006,72.7486991 114.620557,72.7486991 C114.082951,72.7486991 113.541943,72.6738825 112.997532,72.5276501 C112.449719,72.378017 111.952944,72.1093575 111.507208,71.7182709 C111.061472,71.330585 110.697397,70.7864646 110.418387,70.0961117 C110.132571,69.402358 109.993066,68.50796 109.993066,67.4027152 C109.993066,66.3552833 110.125766,65.4846905 110.394569,64.7943376 C110.663372,64.100584 111.007031,63.5428605 111.425547,63.1279686 C111.844062,62.709676 112.310214,62.4138104 112.824001,62.2471735 C113.341192,62.0737351 113.851577,61.9921171 114.344949,61.9921171 C114.981229,61.9921171 115.55286,62.1077427 116.066647,62.3321924 C116.570227,62.5566421 117.012561,62.8729121 117.383441,63.2844032 C117.744113,63.6992951 118.033331,64.1924043 118.23068,64.7705323 C118.421223,65.3486604 118.5233,65.9880019 118.5233,66.6783548 L118.5233,67.7189853 L111.330275,67.7189853 Z" id="Fill-15" fill="#221F20"></path>
            <path d="M137.910444,67.7842797 C137.141464,67.7842797 136.549417,67.9373136 136.124096,68.2535836 C135.702178,68.5596514 135.484414,69.0221538 135.484414,69.6274879 C135.484414,70.2396235 135.712386,70.7123281 136.164927,71.0490027 C136.617469,71.3924788 137.263956,71.5625164 138.097585,71.5625164 C138.437842,71.5625164 138.784903,71.5319096 139.148978,71.4740968 C139.506248,71.416284 139.843102,71.3108607 140.14593,71.1476245 C140.448758,70.9843884 140.697146,70.7667402 140.891092,70.4980807 C141.078233,70.2328219 141.176908,69.8825444 141.176908,69.460851 L141.176908,67.7842797 L137.910444,67.7842797 Z M141.15309,71.5829209 C140.884287,71.9910113 140.458966,72.2868768 139.88053,72.4705175 C139.295288,72.6575589 138.652203,72.7459785 137.930859,72.7459785 C136.825025,72.7459785 135.93015,72.4807197 135.242832,71.9434008 C134.558916,71.402681 134.211854,70.6579161 134.211854,69.6921022 C134.211854,69.2806111 134.283308,68.896326 134.426216,68.5290446 C134.565721,68.1583626 134.780083,67.8386918 135.059093,67.5632308 C135.344909,67.284369 135.695373,67.0701216 136.113889,66.9136869 C136.532404,66.7572523 137.022374,66.679035 137.5872,66.679035 L141.176908,66.679035 L141.176908,65.3323367 C141.176908,64.6555869 140.965949,64.1454739 140.547433,63.7917956 C140.128917,63.441518 139.427988,63.2646789 138.437842,63.2646789 C137.263956,63.2646789 136.355471,63.5911512 135.719191,64.240695 L134.871952,63.3292932 C135.28026,62.8837945 135.787242,62.5505207 136.399704,62.326071 C137.005361,62.1050221 137.679069,61.9893964 138.414024,61.9893964 C138.968642,61.9893964 139.489235,62.0404077 139.986009,62.1390296 C140.482784,62.2410522 140.918313,62.4110898 141.292595,62.6593448 C141.67028,62.9075998 141.962901,63.2442743 142.184067,63.67617 C142.405234,64.1080656 142.517519,64.6589876 142.517519,65.3221345 L142.517519,72.6201506 L141.176908,72.6201506 L141.176908,71.6033254 L141.15309,71.5829209 Z" id="Fill-17" fill="#221F20"></path>
            <path d="M161.615444,72.6198105 C160.843062,72.6198105 160.237405,72.4531736 159.784863,72.1130983 C159.328919,71.773023 159.10435,71.1710897 159.10435,70.3072984 L159.10435,57.2586088 L160.441559,57.2586088 L160.441559,70.1576653 C160.441559,70.9908498 160.897503,71.4159439 161.802585,71.4159439 L162.142842,71.4159439 L162.142842,72.6198105 L161.615444,72.6198105 Z" id="Fill-19" fill="#221F20"></path>
            <path d="M203.396579,66.6171413 C203.362553,65.4710875 203.103958,64.6208992 202.596976,64.0563742 C202.096799,63.4986507 201.402675,63.2197889 200.5078,63.2197889 C199.643548,63.2197889 198.949425,63.5122537 198.415222,64.0903817 C197.891226,64.6719105 197.595203,65.5152973 197.53736,66.6171413 L203.396579,66.6171413 Z M197.53736,67.7189853 C197.520347,68.246102 197.571385,68.7358104 197.687072,69.2051144 C197.795955,69.6710175 197.989901,70.0791079 198.258704,70.4259847 C198.524104,70.7728615 198.871166,71.0483225 199.289681,71.2523677 C199.704794,71.4598137 200.208374,71.5618363 200.783408,71.5618363 C201.164495,71.5618363 201.589816,71.4802182 202.035552,71.316982 C202.484691,71.1537459 202.889597,70.9326969 203.246866,70.6470337 L204.07369,71.5618363 C203.604136,71.9699266 203.097153,72.2725937 202.54934,72.4630358 C201.998124,72.653478 201.42309,72.7486991 200.827641,72.7486991 C200.293438,72.7486991 199.742223,72.6738825 199.204617,72.5276501 C198.656804,72.378017 198.163432,72.1093575 197.714293,71.7182709 C197.268557,71.330585 196.904482,70.7864646 196.625472,70.0961117 C196.339656,69.402358 196.200151,68.50796 196.200151,67.4027152 C196.200151,66.3552833 196.339656,65.4846905 196.601654,64.7943376 C196.870456,64.100584 197.214116,63.5428605 197.632631,63.1279686 C198.051147,62.709676 198.517299,62.4138104 199.037891,62.2471735 C199.548276,62.0737351 200.055259,61.9921171 200.552033,61.9921171 C201.188313,61.9921171 201.756542,62.1077427 202.273732,62.3321924 C202.777312,62.5566421 203.219646,62.8729121 203.590525,63.2844032 C203.958003,63.6992951 204.240416,64.1924043 204.437764,64.7705323 C204.628308,65.3486604 204.733788,65.9880019 204.733788,66.6783548 L204.733788,67.7189853 L197.53736,67.7189853 Z" id="Fill-21" fill="#221F20"></path>
            <path d="M228.360869,69.6291883 C228.360869,70.5473916 228.0036,71.298958 227.278853,71.8804868 C226.557509,72.4586148 225.560557,72.7476789 224.281192,72.7476789 C223.519017,72.7476789 222.763647,72.635454 222.021888,72.4178058 C221.283531,72.2001576 220.60642,71.8396778 219.993958,71.3465686 L220.824184,70.3059381 C221.827942,71.1425234 223.022242,71.560816 224.393477,71.560816 C224.699708,71.560816 225.022951,71.5268085 225.332585,71.4519919 C225.652426,71.3839769 225.941644,71.2683513 226.179824,71.1153174 C226.431614,70.9588827 226.632365,70.7616391 226.788884,70.5235863 C226.948804,70.2787321 227.020258,69.9828666 227.020258,69.6291883 C227.020258,69.3197197 226.948804,69.054461 226.812701,68.8470151 C226.666391,68.6327676 226.472445,68.4593292 226.22746,68.3266998 C225.979073,68.1906697 225.693257,68.0886471 225.366611,68.0138306 C225.039964,67.9458155 224.699708,67.8880027 224.352646,67.8471937 C223.910312,67.7893808 223.464576,67.717965 223.03245,67.636347 C222.596922,67.5513281 222.195419,67.4118973 221.841552,67.2214551 C221.487685,67.0310129 221.198467,66.7691549 220.973897,66.4358811 C220.749328,66.1060081 220.633641,65.6605094 220.633641,65.1095874 C220.633641,64.6300812 220.732315,64.1947848 220.936469,63.807099 C221.133818,63.4160124 221.409426,63.0895401 221.753085,62.8208806 C222.100147,62.5522211 222.50165,62.3447751 222.971204,62.2019435 C223.433953,62.0625126 223.940935,61.9910968 224.471736,61.9910968 C225.250923,61.9910968 225.928034,62.0795164 226.503068,62.2597563 C227.074699,62.4331947 227.602097,62.6984535 228.085261,63.0521318 L227.340099,64.109766 C226.931791,63.847908 226.496263,63.6302598 226.033514,63.4670237 C225.57757,63.3037875 225.056977,63.2221694 224.495554,63.2221694 C223.746989,63.2221694 223.141332,63.3820048 222.681986,63.7016756 C222.219237,64.0179457 221.98446,64.4668451 221.970849,65.0483739 C221.970849,65.3442394 222.038901,65.5856928 222.181808,65.7693335 C222.321314,65.9529742 222.522065,66.1060081 222.78066,66.2216337 C223.039255,66.3440608 223.355694,66.4358811 223.709561,66.5106977 C224.06683,66.5821135 224.471736,66.6467278 224.920874,66.7011399 C225.315572,66.7419489 225.720478,66.823567 226.128786,66.9357918 C226.537094,67.0480167 226.904571,67.2146536 227.23462,67.4357025 C227.568071,67.6533507 227.836874,67.939014 228.044431,68.2892916 C228.25539,68.6463706 228.360869,69.0918693 228.360869,69.6291883" id="Fill-23" fill="#221F20"></path>
            <path d="M247.447226,72.6198105 C246.681648,72.6198105 246.106615,72.4089639 245.72893,71.9838697 C245.34444,71.5621763 245.153896,70.9534415 245.153896,70.1576653 L245.153896,63.2439343 L243.816687,63.2439343 L243.816687,62.0978805 L245.153896,62.0978805 L245.153896,59.4010833 L246.491105,59.4010833 L246.491105,62.0978805 L248.267244,62.0978805 L248.267244,63.2439343 L246.491105,63.2439343 L246.491105,69.9060096 C246.491105,70.1032533 246.501312,70.2936954 246.52513,70.4773361 C246.559156,70.6609768 246.623805,70.8242129 246.719077,70.9670445 C246.824556,71.1098762 246.950451,71.2152995 247.117177,71.2969176 C247.277097,71.3717342 247.498264,71.4159439 247.78408,71.4159439 L248.56667,71.4159439 L248.56667,72.6198105 L247.447226,72.6198105 Z" id="Fill-25" fill="#221F20"></path>
            <path d="M267.626487,67.7842797 C266.864312,67.7842797 266.272265,67.9373136 265.85375,68.2535836 C265.425026,68.5596514 265.214067,69.0221538 265.214067,69.6274879 C265.214067,70.2396235 265.438636,70.7123281 265.891178,71.0490027 C266.343719,71.3924788 266.990207,71.5625164 267.820433,71.5625164 C268.16069,71.5625164 268.514557,71.5319096 268.878631,71.4740968 C269.239303,71.416284 269.56595,71.3108607 269.868778,71.1476245 C270.178412,70.9843884 270.426799,70.7667402 270.61394,70.4980807 C270.807886,70.2328219 270.899756,69.8825444 270.899756,69.460851 L270.899756,67.7842797 L267.626487,67.7842797 Z M270.882743,71.5829209 C270.61394,71.9910113 270.185217,72.2868768 269.60678,72.4705175 C269.028344,72.6575589 268.371649,72.7459785 267.65711,72.7459785 C266.554678,72.7459785 265.656401,72.4807197 264.96568,71.9434008 C264.285166,71.402681 263.934702,70.6579161 263.934702,69.6921022 C263.934702,69.2806111 264.009559,68.896326 264.152466,68.5290446 C264.295374,68.1583626 264.502931,67.8386918 264.785344,67.5632308 C265.071159,67.284369 265.418221,67.0701216 265.843542,66.9136869 C266.255252,66.7572523 266.745222,66.679035 267.313451,66.679035 L270.899756,66.679035 L270.899756,65.3323367 C270.899756,64.6555869 270.695602,64.1454739 270.270281,63.7917956 C269.851765,63.441518 269.147434,63.2646789 268.16069,63.2646789 C266.990207,63.2646789 266.078319,63.5911512 265.445442,64.240695 L264.591397,63.3292932 C265.00651,62.8837945 265.516895,62.5505207 266.125955,62.326071 C266.735014,62.1050221 267.408722,61.9893964 268.143677,61.9893964 C268.694893,61.9893964 269.22229,62.0404077 269.708857,62.1390296 C270.205632,62.2410522 270.641161,62.4110898 271.022248,62.6593448 C271.393128,62.9075998 271.689151,63.2442743 271.910318,63.67617 C272.128082,64.1080656 272.236964,64.6589876 272.236964,65.3221345 L272.236964,72.6201506 L270.899756,72.6201506 L270.899756,71.6033254 L270.882743,71.5829209 Z" id="Fill-27" fill="#221F20"></path>
            <path d="M291.620705,72.6198105 C290.85853,72.6198105 290.280094,72.4089639 289.902409,71.9838697 C289.514517,71.5621763 289.327375,70.9534415 289.327375,70.1576653 L289.327375,63.2439343 L287.990167,63.2439343 L287.990167,62.0978805 L289.327375,62.0978805 L289.327375,59.4010833 L290.661181,59.4010833 L290.661181,62.0978805 L292.447529,62.0978805 L292.447529,63.2439343 L290.661181,63.2439343 L290.661181,69.9060096 C290.661181,70.1032533 290.678194,70.2936954 290.705415,70.4773361 C290.732635,70.6609768 290.800687,70.8242129 290.899361,70.9670445 C290.998036,71.1098762 291.127333,71.2152995 291.287254,71.2969176 C291.453979,71.3717342 291.678549,71.4159439 291.957559,71.4159439 L292.743552,71.4159439 L292.743552,72.6198105 L291.620705,72.6198105 Z" id="Fill-29" fill="#221F20"></path>
            <path d="M315.348843,66.6171413 C315.321622,65.4710875 315.056222,64.6208992 314.56285,64.0563742 C314.052465,63.4986507 313.358342,63.2197889 312.466869,63.2197889 C311.599215,63.2197889 310.901689,63.5122537 310.377693,64.0903817 C309.84349,64.6719105 309.55087,65.5152973 309.496429,66.6171413 L315.348843,66.6171413 Z M309.496429,67.7189853 C309.479416,68.246102 309.530454,68.7358104 309.639336,69.2051144 C309.755024,69.6710175 309.942165,70.0791079 310.217773,70.4259847 C310.486575,70.7728615 310.826832,71.0483225 311.245348,71.2523677 C311.663863,71.4598137 312.157236,71.5618363 312.742477,71.5618363 C313.123564,71.5618363 313.54208,71.4802182 313.994622,71.316982 C314.450565,71.1537459 314.852068,70.9326969 315.205935,70.6470337 L316.032759,71.5618363 C315.563205,71.9699266 315.056222,72.2725937 314.501604,72.4630358 C313.957193,72.653478 313.38216,72.7486991 312.78671,72.7486991 C312.245702,72.7486991 311.708097,72.6738825 311.163686,72.5276501 C310.61247,72.378017 310.125903,72.1093575 309.680167,71.7182709 C309.231028,71.330585 308.863551,70.7864646 308.584541,70.0961117 C308.302128,69.402358 308.15922,68.50796 308.15922,67.4027152 C308.15922,66.3552833 308.29192,65.4846905 308.560723,64.7943376 C308.829526,64.100584 309.173185,63.5428605 309.5917,63.1279686 C310.010216,62.709676 310.469563,62.4138104 310.990155,62.2471735 C311.507345,62.0737351 312.010925,61.9921171 312.511103,61.9921171 C313.147382,61.9921171 313.715611,62.1077427 314.229399,62.3321924 C314.736381,62.5566421 315.178715,62.8729121 315.542789,63.2844032 C315.910266,63.6992951 316.192679,64.1924043 316.396833,64.7705323 C316.594182,65.3486604 316.689454,65.9880019 316.689454,66.6783548 L316.689454,67.7189853 L309.496429,67.7189853 Z" id="Fill-31" fill="#221F20"></path>
        </g>
    </g>
</svg>