<?xml version="1.0" encoding="UTF-8" standalone="no"?>
<svg width="20px" height="16px" viewBox="0 0 20 16" version="1.1" xmlns="http://www.w3.org/2000/svg" xmlns:xlink="http://www.w3.org/1999/xlink">
    <!-- Generator: sketchtool 39.1 (31720) - http://www.bohemiancoding.com/sketch -->
    <title>3C8479A9-CC6E-442A-BD9E-3FAE084254DD</title>
    <desc>Created with sketchtool.</desc>
    <defs></defs>
    <g id="Page-1" stroke="none" stroke-width="1" fill="none" fill-rule="evenodd">
        <g id="-g-wolsen_eb5-final" transform="translate(-813.000000, -9759.000000)" fill="#CDCCCD">
            <g id="Block_contact-form" transform="translate(0.000000, 9581.000000)">
                <g id="Kar'era">
                    <g id="contact-form" transform="translate(800.000000, 69.000000)">
                        <g id="email-input-copy" transform="translate(4.000000, 92.000000)">
                            <g id="email-2" transform="translate(9.000000, 17.000000)">
                                <path d="M18,4 L10,9 L2,4 L2,2 L10,7 L18,2 L18,4 Z M18,0 L2,0 C0.89,0 0,0.89 0,2 L0,14 C0,15.1045695 0.8954305,16 2,16 L18,16 C19.1045695,16 20,15.1045695 20,14 L20,2 C20,0.89 19.1,0 18,0 L18,0 Z" id="Shape"></path>
                            </g>
                        </g>
                    </g>
                </g>
            </g>
        </g>
    </g>
</svg>