<?xml version="1.0" encoding="UTF-8" standalone="no"?>
<svg width="19px" height="16px" viewBox="0 0 19 16" version="1.1" xmlns="http://www.w3.org/2000/svg" xmlns:xlink="http://www.w3.org/1999/xlink">
    <!-- Generator: sketchtool 39.1 (31720) - http://www.bohemiancoding.com/sketch -->
    <title>646A63FB-0C5C-479B-B5EC-D4D20E723D6D</title>
    <desc>Created with sketchtool.</desc>
    <defs></defs>
    <g id="Page-1" stroke="none" stroke-width="1" fill="none" fill-rule="evenodd">
        <g id="-g-wolsen_eb5-final" transform="translate(-55.000000, -10588.000000)" fill="#006F97">
            <g id="-Block_contacts" transform="translate(0.000000, 10041.000000)">
                <g id="mail" transform="translate(55.000000, 542.000000)">
                    <g id="Group-54">
                        <path d="M3.00012207,5 C1.3432004,5 0,6.3488986 0,8.00303087 L0,17.1969691 C0,18.8554973 1.3360431,20.2 3.00012207,20.2 L15.9998779,20.2 C17.6567996,20.2 19,18.8511014 19,17.1969691 L19,8.00303087 C19,6.34450272 17.6639569,5 15.9998779,5 L3.00012207,5 Z M1.9,6.9 L1.9,8.8 L9.5,13.55 L9.5,11.65 L1.9,6.9 Z M17.1,6.9 L17.1,8.8 L9.5,13.55 L9.5,11.65 L17.1,6.9 Z" id="Rectangle-45"></path>
                    </g>
                </g>
            </g>
        </g>
    </g>
</svg>