<?xml version="1.0" encoding="UTF-8" standalone="no"?>
<svg width="16px" height="16px" viewBox="0 0 16 16" version="1.1" xmlns="http://www.w3.org/2000/svg" xmlns:xlink="http://www.w3.org/1999/xlink">
    <!-- Generator: sketchtool 39.1 (31720) - http://www.bohemiancoding.com/sketch -->
    <title>B30AB350-D529-436C-BF64-7FC261B8463E</title>
    <desc>Created with sketchtool.</desc>
    <defs></defs>
    <g id="Page-1" stroke="none" stroke-width="1" fill="none" fill-rule="evenodd">
        <g id="-g-wolsen_eb5-final" transform="translate(-815.000000, -9671.000000)" fill="#CDCCCD">
            <g id="Block_contact-form" transform="translate(0.000000, 9581.000000)">
                <g id="Kar'era">
                    <g id="contact-form" transform="translate(800.000000, 69.000000)">
                        <g id="name-input-copy">
                            <g id="account-2" transform="translate(15.000000, 21.000000)">
                                <path d="M8,0 C10.209139,0 12,1.790861 12,4 C12,6.209139 10.209139,8 8,8 C5.790861,8 4,6.209139 4,4 C4,1.790861 5.790861,0 8,0 L8,0 Z M8,10 C12.42,10 16,11.79 16,14 L16,16 L0,16 L0,14 C0,11.79 3.58,10 8,10 L8,10 Z" id="Shape"></path>
                            </g>
                        </g>
                    </g>
                </g>
            </g>
        </g>
    </g>
</svg>