<?xml version="1.0" encoding="UTF-8" standalone="no"?>
<svg width="19px" height="24px" viewBox="0 0 19 24" version="1.1" xmlns="http://www.w3.org/2000/svg" xmlns:xlink="http://www.w3.org/1999/xlink">
    <!-- Generator: sketchtool 39.1 (31720) - http://www.bohemiancoding.com/sketch -->
    <title>BC4C219D-2117-409D-8154-E659E60A342C</title>
    <desc>Created with sketchtool.</desc>
    <defs></defs>
    <g id="Page-1" stroke="none" stroke-width="1" fill="none" fill-rule="evenodd">
        <g id="-g-wolsen_eb5-final" transform="translate(-625.000000, -3481.000000)" fill="#006F97">
            <g id="Block_EB5" transform="translate(0.000000, 2770.000000)">
                <g id="download-broch-Green" transform="translate(625.000000, 711.000000)">
                    <g id="file-pdf">
                        <path d="M10.6875,8.3125 L17.21875,8.3125 L10.6875,1.78125 L10.6875,8.3125 L10.6875,8.3125 Z M2.375,0 L11.875,0 L19,7.125 L19,21.375 C19,22.6866763 17.9366763,23.75 16.625,23.75 L2.375,23.75 C1.056875,23.75 0,22.68125 0,21.375 L0,2.375 C0,1.06332372 1.06332372,0 2.375,0 L2.375,0 Z M8.229375,12.3975 C8.71625,13.46625 9.33375,14.345 10.04625,14.950625 L10.533125,15.330625 C9.5,15.520625 8.075,15.853125 6.566875,16.435 L6.566875,16.435 L6.43625,16.4825 L7.03,15.2475 C7.564375,14.214375 7.95625,13.27625 8.229375,12.3975 L8.229375,12.3975 Z M15.924375,16.921875 C16.138125,16.708125 16.245,16.435 16.256875,16.138125 C16.2925,15.900625 16.233125,15.675 16.114375,15.485 C15.77,14.926875 14.879375,14.665625 13.406875,14.665625 L11.875,14.74875 L10.841875,14.06 C10.09375,13.4425 9.416875,12.361875 8.941875,11.02 L8.989375,10.85375 C9.38125,9.274375 9.749375,7.3625 8.965625,6.57875 C8.775625,6.38875 8.514375,6.29375 8.24125,6.29375 L7.95625,6.29375 C7.516875,6.29375 7.125,6.756875 7.018125,7.208125 C6.57875,8.7875 6.84,9.654375 7.279375,11.09125 L7.279375,11.103125 C6.9825,12.148125 6.6025,13.359375 5.996875,14.5825 L4.856875,16.72 L3.8,17.301875 C2.375,18.1925 1.698125,19.19 1.5675,19.819375 C1.52,20.045 1.54375,20.246875 1.626875,20.460625 L1.6625,20.52 L2.2325,20.888125 L2.755,21.01875 C3.716875,21.01875 4.809375,19.890625 6.281875,17.373125 L6.495625,17.29 C7.71875,16.898125 9.23875,16.625 11.28125,16.399375 C12.504375,17.005 13.94125,17.278125 14.84375,17.278125 C15.36625,17.278125 15.7225,17.1475 15.924375,16.921875 L15.924375,16.921875 Z M15.4375,16.07875 L15.544375,16.209375 C15.5325,16.328125 15.496875,16.34 15.4375,16.36375 L15.39,16.36375 L15.164375,16.3875 C14.618125,16.3875 13.775,16.161875 12.908125,15.781875 C13.015,15.663125 13.0625,15.663125 13.18125,15.663125 C14.84375,15.663125 15.31875,15.96 15.4375,16.07875 L15.4375,16.07875 Z M4.548125,17.8125 C3.77625,19.225625 3.075625,20.009375 2.54125,20.1875 C2.600625,19.73625 3.135,18.9525 3.978125,18.180625 L4.548125,17.8125 L4.548125,17.8125 Z M8.134375,9.606875 C7.86125,8.538125 7.849375,7.67125 8.05125,7.1725 L8.134375,7.03 L8.3125,7.089375 C8.514375,7.374375 8.538125,7.754375 8.419375,8.395625 L8.38375,8.585625 L8.19375,9.559375 L8.134375,9.606875 L8.134375,9.606875 Z" id="Shape"></path>
                    </g>
                </g>
            </g>
        </g>
    </g>
</svg>