<?xml version="1.0" encoding="UTF-8" standalone="no"?>
<svg width="16px" height="17px" viewBox="0 0 16 17" version="1.1" xmlns="http://www.w3.org/2000/svg" xmlns:xlink="http://www.w3.org/1999/xlink">
    <!-- Generator: sketchtool 39.1 (31720) - http://www.bohemiancoding.com/sketch -->
    <title>57F6C82C-0090-48D1-96F4-21A170E8D1C1</title>
    <desc>Created with sketchtool.</desc>
    <defs></defs>
    <g id="Page-1" stroke="none" stroke-width="1" fill="none" fill-rule="evenodd">
        <g id="-g-wolsen_eb5-final" transform="translate(-815.000000, -9846.000000)" fill="#CDCCCD">
            <g id="Block_contact-form" transform="translate(0.000000, 9581.000000)">
                <g id="Kar'era">
                    <g id="contact-form" transform="translate(800.000000, 69.000000)">
                        <g id="password-input" transform="translate(4.000000, 180.000000)">
                            <g id="phone" transform="translate(11.000000, 15.800000)">
                                <path d="M3.08906667,7.64746667 C4.31786667,10.0624 6.2976,12.0421333 8.71253333,13.2709333 L10.5898667,11.3936 C10.8288,11.1546667 11.1616,11.0864 11.4602667,11.1802667 C12.416,11.496 13.44,11.6666667 14.5066667,11.6666667 C14.9779497,11.6666667 15.36,12.048717 15.36,12.52 L15.36,15.5066667 C15.36,15.9779497 14.9779497,16.36 14.5066667,16.36 C6.4948559,16.36 -1.30266168e-16,9.8651441 -8.8817842e-16,1.85333333 C-1.64609067e-15,1.62701526 0.0899045038,1.40996659 0.249935547,1.24993555 C0.40996659,1.0899045 0.627015262,1 0.853333333,1 L3.84,1 C4.31128299,1 4.69333333,1.38205035 4.69333333,1.85333333 C4.69333333,2.92 4.864,3.944 5.17973333,4.89973333 C5.2736,5.1984 5.20533333,5.5312 4.9664,5.77013333 L3.08906667,7.64746667 L3.08906667,7.64746667 Z" id="Shape"></path>
                            </g>
                        </g>
                    </g>
                </g>
            </g>
        </g>
    </g>
</svg>