<?xml version="1.0" encoding="UTF-8" standalone="no"?>
<svg width="19px" height="19px" viewBox="0 0 19 19" version="1.1" xmlns="http://www.w3.org/2000/svg" xmlns:xlink="http://www.w3.org/1999/xlink">
    <!-- Generator: sketchtool 39.1 (31720) - http://www.bohemiancoding.com/sketch -->
    <title>B8587A79-1ABE-4A12-B82E-A3E4914F869E</title>
    <desc>Created with sketchtool.</desc>
    <defs></defs>
    <g id="Page-1" stroke="none" stroke-width="1" fill="none" fill-rule="evenodd">
        <g id="-g-wolsen_eb5-final" transform="translate(-55.000000, -10426.000000)" fill="#006F97">
            <g id="-Block_contacts" transform="translate(0.000000, 10041.000000)">
                <g id="phone-copy" transform="translate(55.000000, 378.000000)">
                    <path d="M0.564126911,7 C0.564126911,7 0.372598874,7.10534544 0.0461819193,7.5646616 C-0.280235036,8.02397776 1.07314428,17.3667574 5.72592139,20.8809258 C10.3786985,24.3950941 10.6718876,25.3010805 18.4544,25.8485104 C18.8817233,25.5047684 19,24.936521 19,24.936521 L18.8817242,20.1756456 L18.4248701,19.6387953 L13.2416704,19.6009845 L10.9923986,22.1352432 C10.9923986,22.1352432 4.29161217,18.3457294 3.82600854,14.9427607 C5.17267555,13.4683002 6.22105493,12.7903594 6.22105493,12.7903594 L6.36714197,7.51153904 L5.82513559,7.02859244 L0.564126911,7 Z" id="Path-1"></path>
                </g>
            </g>
        </g>
    </g>
</svg>